G04 MADE WITH FRITZING*
G04 WWW.FRITZING.ORG*
G04 DOUBLE SIDED*
G04 HOLES PLATED*
G04 CONTOUR ON CENTER OF CONTOUR VECTOR*
%FSLAX26Y26*%
%MOIN*%
%ADD10C,0.066929*%
%ADD11C,0.074803*%
%ADD12C,0.070866*%
%ADD13C,0.062992*%
%ADD14C,0.082677*%
%ADD15C,0.094488*%
%ADD16C,0.039370*%
%ADD17R,0.066929X0.066929*%
%ADD18R,0.074803X0.074803*%
%ADD19R,0.070866X0.070866*%
%ADD20R,0.062992X0.062992*%
%ADD21R,0.082677X0.082677*%
%ADD22R,0.094488X0.094488*%
%ADD23C,0.031496*%
%ADD24C,0.015748*%
G04 COPPER0*
%FSLAX26Y26*%
%MOIN*%
D10*
X551969Y1761810D03*
X451969Y1761810D03*
D11*
X405511Y1507870D03*
X705511Y1507870D03*
D12*
X1181100Y680310D03*
X1181100Y780310D03*
X1181100Y880310D03*
X1181100Y980310D03*
X1181100Y1080310D03*
X1181100Y1180310D03*
X1181100Y1280310D03*
X581104Y1280310D03*
X581104Y1180310D03*
X581104Y1080310D03*
X581104Y980310D03*
X581104Y880310D03*
X581104Y780310D03*
X581104Y680310D03*
D10*
X1025980Y3271652D03*
X1225980Y3271652D03*
D12*
X78740Y3027557D03*
X78740Y2927557D03*
X78740Y2827557D03*
X78740Y2727557D03*
X78740Y2627557D03*
X78740Y2527557D03*
X878740Y3027557D03*
X878740Y2927557D03*
X878740Y2827557D03*
X878740Y2727557D03*
X878740Y2627557D03*
X878740Y2527557D03*
D13*
X940945Y1669290D03*
X1040940Y1669290D03*
X1140950Y1669290D03*
D10*
X1025980Y2385830D03*
X1225980Y2385830D03*
D13*
X1019690Y3023620D03*
X1119680Y3023620D03*
X1219680Y3023620D03*
D10*
X177165Y1714170D03*
X177165Y1614170D03*
D14*
X228346Y1518110D03*
X228346Y1118110D03*
D11*
X98424Y1402360D03*
X98424Y1102360D03*
D10*
X177165Y826770D03*
X177165Y1026770D03*
D15*
X149606Y236220D03*
X349606Y236220D03*
D16*
X511810Y889760D03*
X370078Y1637790D03*
X913386Y1803150D03*
X716535Y1803150D03*
X653543Y1354330D03*
X716535Y1417320D03*
X559055Y1448810D03*
X622047Y1511810D03*
X834646Y1425190D03*
X834646Y1645660D03*
X322835Y1685030D03*
X385827Y1748030D03*
X834646Y1322830D03*
X748031Y1322830D03*
D17*
X551970Y1761809D03*
D18*
X405511Y1507867D03*
D19*
X1181099Y680311D03*
D17*
X1025981Y3271651D03*
D19*
X78740Y3027557D03*
D20*
X940945Y1669288D03*
D17*
X1025981Y2385824D03*
D20*
X1019685Y3023620D03*
D17*
X177166Y1714169D03*
D21*
X228346Y1518114D03*
D18*
X98423Y1402357D03*
D17*
X177166Y826769D03*
D22*
X149606Y236223D03*
D23*
X874016Y2889762D02*
X876298Y2908025D01*
D02*
X874016Y2866140D02*
X874016Y2889762D01*
D02*
X876347Y2847097D02*
X874016Y2866140D01*
D02*
X1220470Y3055117D02*
X1220080Y3039364D01*
D02*
X1220470Y3236219D02*
X1220470Y3055117D01*
D02*
X1223260Y3254146D02*
X1220470Y3236219D01*
D02*
X425197Y1456690D02*
X412578Y1489500D01*
D02*
X511811Y1370080D02*
X425197Y1456690D01*
D02*
X511811Y897640D02*
X511811Y1370080D01*
D02*
X433071Y1700790D02*
X375647Y1643360D01*
D02*
X433071Y1732280D02*
X433071Y1700790D01*
D02*
X442419Y1746890D02*
X433071Y1732280D01*
D02*
X1212600Y2417321D02*
X1219050Y2402130D01*
D02*
X1212600Y2921258D02*
X1212600Y2417321D01*
D02*
X1141730Y2992124D02*
X1212600Y2921258D01*
D02*
X1128720Y3010719D02*
X1141730Y2992124D01*
D02*
X1149610Y1700790D02*
X1145120Y1684470D01*
D02*
X1149610Y2299210D02*
X1149610Y1700790D01*
D02*
X1204720Y2354330D02*
X1149610Y2299210D01*
D02*
X1216070Y2371140D02*
X1204720Y2354330D01*
D02*
X724410Y1803150D02*
X905512Y1803150D01*
D02*
X149607Y1047240D02*
X162944Y1037330D01*
D02*
X125984Y1070860D02*
X149607Y1047240D01*
D02*
X111388Y1087550D02*
X125984Y1070860D01*
D02*
X125984Y299210D02*
X140621Y260180D01*
D02*
X86614Y338580D02*
X125984Y299210D01*
D02*
X86614Y700790D02*
X86614Y338580D01*
D02*
X165354Y779530D02*
X86614Y700790D01*
D02*
X172869Y809580D02*
X165354Y779530D01*
D02*
X283464Y1543310D02*
X248040Y1527110D01*
D02*
X330709Y1590550D02*
X283464Y1543300D01*
D02*
X480314Y1590550D02*
X330708Y1590550D01*
D02*
X582677Y1692910D02*
X480314Y1590550D01*
D02*
X905512Y1692910D02*
X582678Y1692910D01*
D02*
X927841Y1678030D02*
X905511Y1692910D01*
D02*
X204724Y1566930D02*
X218915Y1537600D01*
D02*
X204724Y1574800D02*
X204724Y1566930D01*
D02*
X196850Y1582680D02*
X204724Y1574800D01*
D02*
X186556Y1599150D02*
X196851Y1582680D01*
D02*
X62992Y2984250D02*
X72013Y3009057D01*
D02*
X62992Y2960628D02*
X62992Y2984250D01*
D02*
X70277Y2945331D02*
X62992Y2960629D01*
D02*
X842520Y3015747D02*
X860025Y3021455D01*
D02*
X125984Y3015747D02*
X842520Y3015747D01*
D02*
X97837Y3022783D02*
X125984Y3015747D01*
D02*
X1007870Y3062990D02*
X1015160Y3038704D01*
D02*
X1007870Y3228344D02*
X1007870Y3062990D01*
D02*
X1019150Y3255307D02*
X1007870Y3228346D01*
D02*
X976378Y3015747D02*
X1004190Y3020804D01*
D02*
X913386Y3015747D02*
X976378Y3015747D01*
D02*
X897372Y3021206D02*
X913386Y3015747D01*
D02*
X1015750Y2433069D02*
X1022230Y2403140D01*
D02*
X1015750Y2984250D02*
X1015750Y2433069D01*
D02*
X1018120Y3007950D02*
X1015750Y2984250D01*
D02*
X968504Y2291340D02*
X968504Y1755900D01*
D02*
X1015750Y2338580D02*
X968503Y2291340D01*
D02*
X1022230Y2368510D02*
X1015750Y2338580D01*
D02*
X598426Y1755900D02*
X569544Y1759570D01*
D02*
X968504Y1755900D02*
X598426Y1755900D01*
D02*
X1023620Y1700790D02*
X968504Y1755900D01*
D02*
X1033350Y1683090D02*
X1023620Y1700790D01*
D02*
X220472Y1740160D02*
X192357Y1723290D01*
D02*
X307087Y1826770D02*
X220472Y1740160D01*
D02*
X488189Y1826770D02*
X307087Y1826770D01*
D02*
X519686Y1795270D02*
X488190Y1826770D01*
D02*
X539668Y1774560D02*
X519686Y1795270D01*
D02*
X212599Y1157480D02*
X220305Y1138210D01*
D02*
X212599Y1409450D02*
X212599Y1157480D01*
D02*
X110237Y1511810D02*
X212599Y1409450D01*
D02*
X110237Y1645670D02*
X110237Y1511810D01*
D02*
X141732Y1677160D02*
X110237Y1645670D01*
D02*
X164913Y1701370D02*
X141732Y1677160D01*
D02*
X543307Y787400D02*
X561754Y783940D01*
D02*
X251969Y1078740D02*
X543308Y787400D01*
D02*
X239487Y1099540D02*
X251969Y1078740D01*
D02*
X362204Y283460D02*
X356199Y260940D01*
D02*
X362204Y566930D02*
X362204Y283460D01*
D02*
X551181Y755900D02*
X362204Y566930D01*
D02*
X565849Y767870D02*
X551181Y755900D01*
D24*
D02*
X710968Y1411750D02*
X659111Y1359900D01*
D02*
X616480Y1506240D02*
X564623Y1454380D01*
D02*
X811023Y1425200D02*
X826772Y1425200D01*
D02*
X795276Y1440940D02*
X811023Y1425200D01*
D02*
X795276Y1629920D02*
X795276Y1440940D01*
D02*
X818898Y1629920D02*
X795276Y1629920D01*
D02*
X829078Y1640100D02*
X818898Y1629920D01*
D02*
X380259Y1742460D02*
X328402Y1690610D01*
D02*
X755905Y1322830D02*
X826772Y1322830D01*
G04 End of Copper0*
M02*