G04 MADE WITH FRITZING*
G04 WWW.FRITZING.ORG*
G04 DOUBLE SIDED*
G04 HOLES PLATED*
G04 CONTOUR ON CENTER OF CONTOUR VECTOR*
%FSLAX26Y26*%
%MOIN*%
%ADD10C,0.066929*%
%ADD11C,0.074803*%
%ADD12C,0.070866*%
%ADD13C,0.062992*%
%ADD14C,0.082677*%
%ADD15C,0.094488*%
%ADD16C,0.039370*%
%ADD17R,0.066929X0.066929*%
%ADD18R,0.074803X0.074803*%
%ADD19R,0.070866X0.070866*%
%ADD20R,0.062992X0.062992*%
%ADD21R,0.082677X0.082677*%
%ADD22R,0.094488X0.094488*%
%ADD23C,0.031496*%
%ADD24C,0.015748*%
G04 COPPER1*
%FSLAX26Y26*%
%MOIN*%
D10*
X551969Y1761810D03*
X451969Y1761810D03*
X551969Y1761810D03*
X451969Y1761810D03*
D11*
X405511Y1507870D03*
X705511Y1507870D03*
X405511Y1507870D03*
X705511Y1507870D03*
D12*
X1181100Y680310D03*
X1181100Y780310D03*
X1181100Y880310D03*
X1181100Y980310D03*
X1181100Y1080310D03*
X1181100Y1180310D03*
X1181100Y1280310D03*
X581104Y1280310D03*
X581104Y1180310D03*
X581104Y1080310D03*
X581104Y980310D03*
X581104Y880310D03*
X581104Y780310D03*
X581104Y680310D03*
X1181100Y680310D03*
X1181100Y780310D03*
X1181100Y880310D03*
X1181100Y980310D03*
X1181100Y1080310D03*
X1181100Y1180310D03*
X1181100Y1280310D03*
X581104Y1280310D03*
X581104Y1180310D03*
X581104Y1080310D03*
X581104Y980310D03*
X581104Y880310D03*
X581104Y780310D03*
X581104Y680310D03*
D10*
X1025980Y3271652D03*
X1225980Y3271652D03*
X1025980Y3271652D03*
X1225980Y3271652D03*
D12*
X78740Y3027557D03*
X78740Y2927557D03*
X78740Y2827557D03*
X78740Y2727557D03*
X78740Y2627557D03*
X78740Y2527557D03*
X878740Y3027557D03*
X878740Y2927557D03*
X878740Y2827557D03*
X878740Y2727557D03*
X878740Y2627557D03*
X878740Y2527557D03*
X78740Y3027557D03*
X78740Y2927557D03*
X78740Y2827557D03*
X78740Y2727557D03*
X78740Y2627557D03*
X78740Y2527557D03*
X878740Y3027557D03*
X878740Y2927557D03*
X878740Y2827557D03*
X878740Y2727557D03*
X878740Y2627557D03*
X878740Y2527557D03*
D13*
X940945Y1669290D03*
X1040940Y1669290D03*
X1140950Y1669290D03*
X940945Y1669290D03*
X1040940Y1669290D03*
X1140950Y1669290D03*
D10*
X1025980Y2385830D03*
X1225980Y2385830D03*
X1025980Y2385830D03*
X1225980Y2385830D03*
D13*
X1019690Y3023620D03*
X1119680Y3023620D03*
X1219680Y3023620D03*
X1019690Y3023620D03*
X1119680Y3023620D03*
X1219680Y3023620D03*
D10*
X177165Y1714170D03*
X177165Y1614170D03*
X177165Y1714170D03*
X177165Y1614170D03*
D14*
X228346Y1518110D03*
X228346Y1118110D03*
X228346Y1518110D03*
X228346Y1118110D03*
D11*
X98424Y1402360D03*
X98424Y1102360D03*
X98424Y1402360D03*
X98424Y1102360D03*
D10*
X177165Y826770D03*
X177165Y1026770D03*
X177165Y826770D03*
X177165Y1026770D03*
D15*
X149606Y236220D03*
X349606Y236220D03*
X149606Y236220D03*
X349606Y236220D03*
D16*
X511810Y889760D03*
X370078Y1637790D03*
X913386Y1803150D03*
X716535Y1803150D03*
X653543Y1354330D03*
X716535Y1417320D03*
X559055Y1448810D03*
X622047Y1511810D03*
X834646Y1425190D03*
X834646Y1645660D03*
X322835Y1685030D03*
X385827Y1748030D03*
X834646Y1322830D03*
X748031Y1322830D03*
D17*
X551970Y1761809D03*
X551970Y1761809D03*
D18*
X405511Y1507867D03*
X405511Y1507867D03*
D19*
X1181099Y680311D03*
X1181099Y680311D03*
D17*
X1025981Y3271651D03*
X1025981Y3271651D03*
D19*
X78740Y3027557D03*
X78740Y3027557D03*
D20*
X940945Y1669288D03*
X940945Y1669288D03*
D17*
X1025981Y2385824D03*
X1025981Y2385824D03*
D20*
X1019685Y3023620D03*
X1019685Y3023620D03*
D17*
X177166Y1714169D03*
X177166Y1714169D03*
D21*
X228346Y1518114D03*
X228346Y1518114D03*
D18*
X98423Y1402357D03*
X98423Y1402357D03*
D17*
X177166Y826769D03*
X177166Y826769D03*
D22*
X149606Y236223D03*
X149606Y236223D03*
D23*
X1196850Y2999998D02*
X1208740Y3012297D01*
D02*
X1133860Y2937006D02*
X1196850Y2999998D01*
D02*
X913386Y2937006D02*
X1133860Y2937006D01*
D02*
X897731Y2932737D02*
X913386Y2937007D01*
D02*
X511811Y748030D02*
X511811Y881890D01*
D02*
X551181Y708660D02*
X511811Y748030D01*
D02*
X566812Y693850D02*
X551181Y708660D01*
D02*
X385827Y1559050D02*
X398446Y1526250D01*
D02*
X370079Y1574800D02*
X385827Y1559050D01*
D02*
X370079Y1629920D02*
X370079Y1574800D01*
D02*
X1118110Y1692910D02*
X1130000Y1680610D01*
D02*
X1007870Y1803150D02*
X1118110Y1692910D01*
D02*
X921260Y1803150D02*
X1007870Y1803150D01*
D02*
X716536Y1543310D02*
X716536Y1795270D01*
D02*
X711360Y1526670D02*
X716536Y1543310D01*
D02*
X133858Y1433070D02*
X113300Y1415250D01*
D02*
X181102Y1480310D02*
X133858Y1433070D01*
D02*
X211438Y1504580D02*
X181102Y1480310D01*
D24*
D02*
X606299Y1212600D02*
X593214Y1195830D01*
D02*
X653543Y1259840D02*
X606299Y1212600D01*
D02*
X653543Y1346450D02*
X653543Y1259840D01*
D02*
X763780Y1464570D02*
X722103Y1422890D01*
D02*
X763780Y2133860D02*
X763780Y1464570D01*
D02*
X102362Y2795273D02*
X763780Y2133860D01*
D02*
X90364Y2811671D02*
X102362Y2795274D01*
D02*
X519686Y1141730D02*
X567184Y1094230D01*
D02*
X519686Y1409450D02*
X519686Y1141730D01*
D02*
X553488Y1443250D02*
X519686Y1409450D01*
D02*
X622048Y2173230D02*
X622048Y1519680D01*
D02*
X102362Y2692911D02*
X622048Y2173230D01*
D02*
X89829Y2711294D02*
X102362Y2692912D01*
D02*
X1204720Y811020D02*
X1193100Y795920D01*
D02*
X1236220Y842520D02*
X1204720Y811020D01*
D02*
X1236220Y1314960D02*
X1236220Y842520D01*
D02*
X1125980Y1425200D02*
X1236220Y1314960D01*
D02*
X842520Y1425200D02*
X1125980Y1425200D01*
D02*
X834646Y2480313D02*
X834646Y1653540D01*
D02*
X850393Y2496061D02*
X834646Y2480313D01*
D02*
X865571Y2512926D02*
X850393Y2496062D01*
D02*
X559056Y1015750D02*
X570704Y997030D01*
D02*
X322834Y1251970D02*
X559054Y1015750D01*
D02*
X322834Y1677160D02*
X322834Y1251970D01*
D02*
X385827Y2314960D02*
X385827Y1755900D01*
D02*
X102362Y2598423D02*
X385827Y2314960D01*
D02*
X91138Y2612267D02*
X102362Y2598424D01*
D02*
X1149610Y1007870D02*
X1166290Y993280D01*
D02*
X840213Y1317270D02*
X1149610Y1007870D01*
D02*
X78740Y1992120D02*
X742463Y1328400D01*
D02*
X78740Y2507873D02*
X78740Y1992120D01*
D02*
X1141730Y716530D02*
X1166620Y693640D01*
D02*
X795276Y1062990D02*
X1141730Y716530D01*
D02*
X795276Y2543306D02*
X795276Y1062990D01*
D02*
X850393Y2598423D02*
X795276Y2543306D01*
D02*
X865012Y2613449D02*
X850393Y2598424D01*
G04 End of Copper1*
M02*