G04 MADE WITH FRITZING*
G04 WWW.FRITZING.ORG*
G04 DOUBLE SIDED*
G04 HOLES PLATED*
G04 CONTOUR ON CENTER OF CONTOUR VECTOR*
%FSLAX26Y26*%
%MOIN*%
%ADD10C,0.135984*%
%ADD11C,0.076929*%
%ADD12C,0.084803*%
%ADD13C,0.080866*%
%ADD14C,0.072992*%
%ADD15C,0.092677*%
%ADD16C,0.104488*%
%ADD17C,0.049370*%
%ADD18R,0.076929X0.076929*%
%ADD19R,0.084803X0.084803*%
%ADD20R,0.080866X0.080866*%
%ADD21R,0.072992X0.072992*%
%ADD22R,0.092677X0.092677*%
%ADD23R,0.104488X0.104488*%
G04 MASK1*
%FSLAX26Y26*%
%MOIN*%
D10*
X1114170Y2753936D03*
X185040Y651580D03*
D11*
X551969Y1761810D03*
X451969Y1761810D03*
X551969Y1761810D03*
X451969Y1761810D03*
D12*
X405511Y1507870D03*
X705511Y1507870D03*
X405511Y1507870D03*
X705511Y1507870D03*
D13*
X1181100Y680310D03*
X1181100Y780310D03*
X1181100Y880310D03*
X1181100Y980310D03*
X1181100Y1080310D03*
X1181100Y1180310D03*
X1181100Y1280310D03*
X581104Y1280310D03*
X581104Y1180310D03*
X581104Y1080310D03*
X581104Y980310D03*
X581104Y880310D03*
X581104Y780310D03*
X581104Y680310D03*
X1181100Y680310D03*
X1181100Y780310D03*
X1181100Y880310D03*
X1181100Y980310D03*
X1181100Y1080310D03*
X1181100Y1180310D03*
X1181100Y1280310D03*
X581104Y1280310D03*
X581104Y1180310D03*
X581104Y1080310D03*
X581104Y980310D03*
X581104Y880310D03*
X581104Y780310D03*
X581104Y680310D03*
D11*
X1025980Y3271652D03*
X1225980Y3271652D03*
X1025980Y3271652D03*
X1225980Y3271652D03*
D13*
X78740Y3027557D03*
X78740Y2927557D03*
X78740Y2827557D03*
X78740Y2727557D03*
X78740Y2627557D03*
X78740Y2527557D03*
X878740Y3027557D03*
X878740Y2927557D03*
X878740Y2827557D03*
X878740Y2727557D03*
X878740Y2627557D03*
X878740Y2527557D03*
X78740Y3027557D03*
X78740Y2927557D03*
X78740Y2827557D03*
X78740Y2727557D03*
X78740Y2627557D03*
X78740Y2527557D03*
X878740Y3027557D03*
X878740Y2927557D03*
X878740Y2827557D03*
X878740Y2727557D03*
X878740Y2627557D03*
X878740Y2527557D03*
D14*
X940945Y1669290D03*
X1040940Y1669290D03*
X1140950Y1669290D03*
X940945Y1669290D03*
X1040940Y1669290D03*
X1140950Y1669290D03*
D11*
X1025980Y2385830D03*
X1225980Y2385830D03*
X1025980Y2385830D03*
X1225980Y2385830D03*
D14*
X1019690Y3023620D03*
X1119680Y3023620D03*
X1219680Y3023620D03*
X1019690Y3023620D03*
X1119680Y3023620D03*
X1219680Y3023620D03*
D11*
X177165Y1714170D03*
X177165Y1614170D03*
X177165Y1714170D03*
X177165Y1614170D03*
D15*
X228346Y1518110D03*
X228346Y1118110D03*
X228346Y1518110D03*
X228346Y1118110D03*
D12*
X98424Y1402360D03*
X98424Y1102360D03*
X98424Y1402360D03*
X98424Y1102360D03*
D11*
X177165Y826770D03*
X177165Y1026770D03*
X177165Y826770D03*
X177165Y1026770D03*
D16*
X149606Y236220D03*
X349606Y236220D03*
X149606Y236220D03*
X349606Y236220D03*
D17*
X511810Y889760D03*
X370078Y1637790D03*
X913386Y1803150D03*
X716535Y1803150D03*
X653543Y1354330D03*
X716535Y1417320D03*
X559055Y1448810D03*
X622047Y1511810D03*
X834646Y1425190D03*
X834646Y1645660D03*
X322835Y1685030D03*
X385827Y1748030D03*
X834646Y1322830D03*
X748031Y1322830D03*
D18*
X551970Y1761809D03*
X551970Y1761809D03*
D19*
X405511Y1507867D03*
X405511Y1507867D03*
D20*
X1181099Y680311D03*
X1181099Y680311D03*
D18*
X1025981Y3271651D03*
X1025981Y3271651D03*
D20*
X78740Y3027557D03*
X78740Y3027557D03*
D21*
X940945Y1669288D03*
X940945Y1669288D03*
D18*
X1025981Y2385824D03*
X1025981Y2385824D03*
D21*
X1019685Y3023620D03*
X1019685Y3023620D03*
D18*
X177166Y1714169D03*
X177166Y1714169D03*
D22*
X228346Y1518114D03*
X228346Y1518114D03*
D19*
X98423Y1402357D03*
X98423Y1402357D03*
D18*
X177166Y826769D03*
X177166Y826769D03*
D23*
X149606Y236223D03*
X149606Y236223D03*
G04 End of Mask1*
M02*