; NON-PLATED HOLES START AT T1
; THROUGH (PLATED) HOLES START AT T100
M48
INCH
T1C0.125984
T100C0.051181
T101C0.043307
T102C0.031496
T103C0.035433
T104C0.039370
T105C0.015748
%
T1
X011141Y027539
X001850Y006515
T100
X001496Y002362
X003496Y002362
T101
X002283Y011181
X002283Y015181
T102
X011196Y030236
X011409Y016692
X009409Y016692
X010409Y016692
X010196Y030236
X012196Y030236
T103
X010259Y032716
X004519Y017618
X001771Y010267
X005519Y017618
X010259Y023858
X012259Y032716
X001771Y016141
X001771Y017141
X001771Y008267
X012259Y023858
T104
X005811Y011803
X011811Y012803
X011811Y011803
X005811Y012803
X008787Y028275
X000787Y025275
X008787Y030275
X000787Y029275
X011811Y006803
X000787Y026275
X011811Y009803
X008787Y027275
X005811Y009803
X005811Y006803
X000984Y011023
X011811Y007803
X000787Y028275
X011811Y008803
X005811Y008803
X005811Y007803
X000787Y030275
X007055Y015078
X008787Y025275
X000984Y014023
X000787Y027275
X011811Y010803
X004055Y015078
X008787Y029275
X008787Y026275
X005811Y010803
T105
X007165Y018031
X003858Y017480
X005118Y008897
X006535Y013543
X006220Y015118
X008346Y013228
X007480Y013228
X003228Y016850
X008346Y014251
X003700Y016377
X005590Y014488
X009133Y018031
X007165Y014173
X008346Y016456
T00
M30
